<svg xmlns="http://www.w3.org/2000/svg" width="24" height="24" viewBox="0 0 24 24" fill="none">
  <path d="M2.29279 7.70708C2.10532 7.51955 2 7.26525 2 7.00008C2 6.73492 2.10532 6.48061 2.29279 6.29308L6.29279 2.29308C6.48139 2.11092 6.73399 2.01013 6.99619 2.01241C7.25838 2.01469 7.5092 2.11985 7.69461 2.30526C7.88001 2.49067 7.98518 2.74148 7.98746 3.00368C7.98974 3.26588 7.88894 3.51848 7.70679 3.70708L3.70679 7.70708C3.51926 7.89455 3.26495 7.99987 2.99979 7.99987C2.73462 7.99987 2.48031 7.89455 2.29279 7.70708ZM19.7928 15.7931L15.7928 19.7931C15.6973 19.8853 15.6211 19.9957 15.5687 20.1177C15.5163 20.2397 15.4887 20.3709 15.4875 20.5037C15.4864 20.6365 15.5117 20.7681 15.562 20.891C15.6122 21.0139 15.6865 21.1256 15.7804 21.2195C15.8743 21.3134 15.9859 21.3876 16.1088 21.4379C16.2317 21.4882 16.3634 21.5135 16.4962 21.5123C16.629 21.5112 16.7602 21.4836 16.8822 21.4312C17.0042 21.3788 17.1145 21.3026 17.2068 21.2071L21.2068 17.2071C21.3889 17.0185 21.4897 16.7659 21.4875 16.5037C21.4852 16.2415 21.38 15.9907 21.1946 15.8053C21.0092 15.6199 20.7584 15.5147 20.4962 15.5124C20.234 15.5101 19.9814 15.6109 19.7928 15.7931ZM21.7068 9.29308C21.5193 9.10561 21.2649 9.00029 20.9998 9.00029C20.7346 9.00029 20.4803 9.10561 20.2928 9.29308L9.29279 20.2931C9.19728 20.3853 9.12109 20.4957 9.06869 20.6177C9.01628 20.7397 8.98869 20.8709 8.98754 21.0037C8.98638 21.1365 9.01168 21.2681 9.06197 21.391C9.11225 21.5139 9.1865 21.6256 9.28039 21.7195C9.37428 21.8134 9.48594 21.8876 9.60883 21.9379C9.73173 21.9882 9.86341 22.0135 9.99619 22.0123C10.129 22.0112 10.2602 21.9836 10.3822 21.9312C10.5042 21.8788 10.6145 21.8026 10.7068 21.7071L21.7068 10.7071C21.8943 10.5196 21.9996 10.2652 21.9996 10.0001C21.9996 9.73492 21.8943 9.48061 21.7068 9.29308ZM2.99979 15.0001C3.26498 15 3.51929 14.8946 3.70679 14.7071L14.7068 3.70708C14.8023 3.61483 14.8785 3.50449 14.9309 3.38249C14.9833 3.26048 15.0109 3.12926 15.012 2.99648C15.0132 2.8637 14.9879 2.73202 14.9376 2.60913C14.8873 2.48623 14.8131 2.37458 14.7192 2.28069C14.6253 2.18679 14.5136 2.11254 14.3907 2.06226C14.2678 2.01198 14.1362 1.98668 14.0034 1.98783C13.8706 1.98898 13.7394 2.01657 13.6174 2.06898C13.4954 2.12139 13.385 2.19757 13.2928 2.29308L2.29279 13.2931C2.15298 13.4329 2.05777 13.6111 2.0192 13.805C1.98064 13.999 2.00044 14.2 2.07611 14.3827C2.15178 14.5654 2.27992 14.7216 2.44433 14.8315C2.60874 14.9414 2.80204 15 2.99979 15.0001ZM2.99979 22.0001C3.26498 22 3.51929 21.8946 3.70679 21.7071L21.7068 3.70708C21.8023 3.61483 21.8785 3.50449 21.9309 3.38249C21.9833 3.26048 22.0109 3.12926 22.012 2.99648C22.0132 2.8637 21.9879 2.73202 21.9376 2.60913C21.8873 2.48623 21.8131 2.37458 21.7192 2.28069C21.6253 2.18679 21.5136 2.11254 21.3907 2.06226C21.2678 2.01198 21.1362 1.98668 21.0034 1.98783C20.8706 1.98898 20.7394 2.01657 20.6174 2.06898C20.4954 2.12139 20.385 2.19757 20.2928 2.29308L2.29279 20.2931C2.15298 20.4329 2.05777 20.6111 2.0192 20.805C1.98064 20.999 2.00044 21.2 2.07611 21.3827C2.15178 21.5654 2.27992 21.7216 2.44433 21.8315C2.60874 21.9414 2.80204 22 2.99979 22.0001Z" fill="#DDA74F"/>
</svg>