<svg xmlns="http://www.w3.org/2000/svg" width="561" height="776" viewBox="0 0 561 776" fill="none">
  <path opacity="0.2" d="M1.05214 0.58015C-27.8119 7.15793 -50.6291 30.9037 -58.9103 58.8769C-67.4856 87.8559 -58.109 118.053 -35.6023 138.022C-13.8689 157.284 18.2767 166.113 45.9692 155.11C71.8727 144.816 94.1427 116.075 81.2414 87.7624C70.3431 63.8554 38.7229 50.1808 14.2786 60.9634C-10.1657 71.746 -21.7561 101.248 -16.9605 126.545C-10.9004 158.461 20.4376 175.738 49.0046 184.342C83.6082 194.831 123.789 195.956 152.329 220.702C174.83 240.213 186.115 270.893 184.248 300.346C183.409 315.104 178.897 329.421 171.12 341.999C162.515 355.648 147.691 367.423 131.21 369.204C112.875 371.189 99.5149 357.287 97.9756 339.654C96.3006 320.267 107.876 303.166 118.896 288.305C139.946 259.931 166.983 231.61 202.405 222.52C233.776 214.509 271.718 222.706 288.757 252.41C308.071 286.087 295.093 326.708 275.402 356.86C264.716 373.215 251.958 388.173 239.4 403.11C226.635 418.297 213.754 433.41 201.704 449.199C178.903 479.14 159.091 511.938 150.823 549.018C143.063 583.801 145.945 621.072 165.594 651.567C183.851 679.987 213.021 699.848 243.94 712.433C282.565 728.201 324.418 734.079 365.237 741.362L496.163 764.735L558.943 775.938C560.294 776.18 560.834 774.111 559.492 773.86L430.137 750.764C388.054 743.257 345.685 736.67 303.872 727.775C266.651 719.847 229.269 708.103 198.934 684.342C185.499 673.82 173.645 661.141 164.968 646.391C155.651 630.276 150.251 612.204 149.204 593.627C144.081 512.823 203.322 450.154 251.138 392.412C273.91 364.896 297.296 334.28 300.03 297.323C301.226 281.348 298.493 264.694 290.305 250.75C282.764 238.169 271.225 228.467 257.525 223.19C227.955 211.467 194.888 218.419 168.911 235.368C154.395 244.867 141.795 257.026 130.573 270.143C119.116 283.549 107.139 298.268 100.278 314.626C94.4393 328.556 93.2759 345.648 102.284 358.581C110.339 370.131 124.398 373.648 137.618 370.159C166.412 362.56 182.746 333.164 185.943 305.385C189.105 277.836 180.698 248.773 162.433 227.76C139.167 201.032 103.278 194.978 70.442 187.6C39.3414 180.62 1.11581 168.676 -11.9213 136.193C-22.3372 110.247 -11.908 75.5756 14.2399 63.3312C40.6538 50.9405 77.0719 69.2642 82.2732 98.1171C88.518 132.695 50.8964 157.772 20.2522 157.784C-10.392 157.797 -40.5881 138.463 -53.5496 110.724C-67.0218 81.846 -58.2157 47.3752 -36.7513 24.8388C-26.4282 13.8353 -13.0778 6.12375 1.6221 2.67348C2.98567 2.36129 2.36836 0.30671 1.05214 0.58015Z" fill="url(#paint0_linear_2739_16879)"/>
  <defs>
    <linearGradient id="paint0_linear_2739_16879" x1="243.978" y1="-2.33914" x2="254.329" y2="865.599" gradientUnits="userSpaceOnUse">
      <stop stop-color="white"/>
      <stop offset="1" stop-color="#191B24" stop-opacity="0.08"/>
    </linearGradient>
  </defs>
</svg>