<svg xmlns="http://www.w3.org/2000/svg" width="25" height="24" viewBox="0 0 25 24" fill="none">
  <path d="M2.5 4C2.5 3.73478 2.60536 3.48043 2.79289 3.29289C2.98043 3.10536 3.23478 3 3.5 3H21.5C21.7652 3 22.0196 3.10536 22.2071 3.29289C22.3946 3.48043 22.5 3.73478 22.5 4C22.5 4.26522 22.3946 4.51957 22.2071 4.70711C22.0196 4.89464 21.7652 5 21.5 5H3.5C3.23478 5 2.98043 4.89464 2.79289 4.70711C2.60536 4.51957 2.5 4.26522 2.5 4ZM3.5 13H21.5C21.7652 13 22.0196 12.8946 22.2071 12.7071C22.3946 12.5196 22.5 12.2652 22.5 12C22.5 11.7348 22.3946 11.4804 22.2071 11.2929C22.0196 11.1054 21.7652 11 21.5 11H3.5C3.23478 11 2.98043 11.1054 2.79289 11.2929C2.60536 11.4804 2.5 11.7348 2.5 12C2.5 12.2652 2.60536 12.5196 2.79289 12.7071C2.98043 12.8946 3.23478 13 3.5 13ZM3.5 21H21.5C21.7652 21 22.0196 20.8946 22.2071 20.7071C22.3946 20.5196 22.5 20.2652 22.5 20C22.5 19.7348 22.3946 19.4804 22.2071 19.2929C22.0196 19.1054 21.7652 19 21.5 19H3.5C3.23478 19 2.98043 19.1054 2.79289 19.2929C2.60536 19.4804 2.5 19.7348 2.5 20C2.5 20.2652 2.60536 20.5196 2.79289 20.7071C2.98043 20.8946 3.23478 21 3.5 21Z" fill="white"/>
</svg>